<?xml version="1.0" encoding="UTF-8" standalone="no"?>
<!-- Created with Inkscape (http://www.inkscape.org/) -->

<svg
   id="svg3336"
   version="1.1"
   inkscape:version="1.3.2 (091e20e, 2023-11-25, custom)"
   xml:space="preserve"
   width="16"
   height="16"
   viewBox="0 0 16 16"
   sodipodi:docname="visualvm_icon_light.svg"
   xmlns:inkscape="http://www.inkscape.org/namespaces/inkscape"
   xmlns:sodipodi="http://sodipodi.sourceforge.net/DTD/sodipodi-0.dtd"
   xmlns="http://www.w3.org/2000/svg"
   xmlns:svg="http://www.w3.org/2000/svg"
   xmlns:rdf="http://www.w3.org/1999/02/22-rdf-syntax-ns#"
   xmlns:cc="http://creativecommons.org/ns#"
   xmlns:dc="http://purl.org/dc/elements/1.1/"><metadata
     id="metadata3342"><rdf:RDF><cc:Work
         rdf:about=""><dc:format>image/svg+xml</dc:format><dc:type
           rdf:resource="http://purl.org/dc/dcmitype/StillImage" /></cc:Work></rdf:RDF></metadata><defs
     id="defs3340"><linearGradient
       x1="491.30566"
       y1="252.90723"
       x2="491.30566"
       y2="254.73145"
       gradientUnits="userSpaceOnUse"
       gradientTransform="matrix(1,2e-4,-2.9e-4,1,-195.36253,242.05355)"
       spreadMethod="pad"
       id="linearGradient3364"><stop
         style="stop-opacity:1;stop-color:#f25c19"
         offset="0"
         id="stop3366" /><stop
         style="stop-opacity:1;stop-color:#f25c19"
         offset="0.00562"
         id="stop3368" /><stop
         style="stop-opacity:1;stop-color:#f25c19"
         offset="0.209272"
         id="stop3370" /><stop
         style="stop-opacity:1;stop-color:#fcdaa6"
         offset="1"
         id="stop3372" /></linearGradient><linearGradient
       x1="502.73828"
       y1="235.1543"
       x2="502.73828"
       y2="238.18652"
       gradientUnits="userSpaceOnUse"
       gradientTransform="matrix(1,2e-4,-2.9e-4,1,-195.36253,242.05355)"
       spreadMethod="pad"
       id="linearGradient3378"><stop
         style="stop-opacity:1;stop-color:#f25c19"
         offset="0"
         id="stop3380" /><stop
         style="stop-opacity:1;stop-color:#f25c19"
         offset="0.00562"
         id="stop3382" /><stop
         style="stop-opacity:1;stop-color:#f25c19"
         offset="0.209272"
         id="stop3384" /><stop
         style="stop-opacity:1;stop-color:#fcdaa6"
         offset="1"
         id="stop3386" /></linearGradient><linearGradient
       x1="470.30859"
       y1="306.59326"
       x2="470.30859"
       y2="311.11426"
       gradientUnits="userSpaceOnUse"
       gradientTransform="matrix(1,2e-4,-2.9e-4,1,-195.36253,242.05355)"
       spreadMethod="pad"
       id="linearGradient3396"><stop
         style="stop-opacity:1;stop-color:#f25c19"
         offset="0"
         id="stop3398" /><stop
         style="stop-opacity:1;stop-color:#f25c19"
         offset="0.00562"
         id="stop3400" /><stop
         style="stop-opacity:1;stop-color:#f25c19"
         offset="0.209272"
         id="stop3402" /><stop
         style="stop-opacity:1;stop-color:#fcdaa6"
         offset="1"
         id="stop3404" /></linearGradient><linearGradient
       x1="405.9585"
       y1="290.89355"
       x2="405.95847"
       y2="297.63525"
       gradientUnits="userSpaceOnUse"
       gradientTransform="matrix(1,0.00229,-0.00229,1,-88.216562,262.56782)"
       spreadMethod="pad"
       id="linearGradient3408"><stop
         style="stop-opacity:1;stop-color:#f25c19"
         offset="0"
         id="stop3410" /><stop
         style="stop-opacity:1;stop-color:#f25c19"
         offset="0.00562"
         id="stop3412" /><stop
         style="stop-opacity:1;stop-color:#f25c19"
         offset="0.209272"
         id="stop3414" /><stop
         style="stop-opacity:1;stop-color:#fcdaa6"
         offset="1"
         id="stop3416" /></linearGradient><linearGradient
       x1="567.05273"
       y1="212.20996"
       x2="567.05273"
       y2="216.57227"
       gradientUnits="userSpaceOnUse"
       gradientTransform="matrix(1,0.00369,-0.00369,1,-324.94772,368.14405)"
       spreadMethod="pad"
       id="linearGradient3420"><stop
         style="stop-opacity:1;stop-color:#f25c19"
         offset="0"
         id="stop3422" /><stop
         style="stop-opacity:1;stop-color:#f25c19"
         offset="0.00562"
         id="stop3424" /><stop
         style="stop-opacity:1;stop-color:#f25c19"
         offset="0.209272"
         id="stop3426" /><stop
         style="stop-opacity:1;stop-color:#fcdaa6"
         offset="1"
         id="stop3428" /></linearGradient><linearGradient
       x1="477.16211"
       y1="394.64551"
       x2="477.16205"
       y2="408.64453"
       gradientUnits="userSpaceOnUse"
       gradientTransform="matrix(0.99979,0.0208,-0.0208,0.99979,-208.64253,104.81689)"
       spreadMethod="pad"
       id="linearGradient3442"><stop
         style="stop-opacity:1;stop-color:#f25c19"
         offset="0"
         id="stop3444" /><stop
         style="stop-opacity:1;stop-color:#f25c19"
         offset="0.00562"
         id="stop3446" /><stop
         style="stop-opacity:1;stop-color:#f25c19"
         offset="0.209272"
         id="stop3448" /><stop
         style="stop-opacity:1;stop-color:#fcdaa6"
         offset="1"
         id="stop3450" /></linearGradient><linearGradient
       x1="441.5957"
       y1="406.59424"
       x2="441.5957"
       y2="409.66406"
       gradientUnits="userSpaceOnUse"
       gradientTransform="matrix(1,-0.00339,0.00339,1,-174.24475,54.727064)"
       spreadMethod="pad"
       id="linearGradient3456"><stop
         style="stop-opacity:1;stop-color:#f25c19"
         offset="0"
         id="stop3458" /><stop
         style="stop-opacity:1;stop-color:#f25c19"
         offset="0.00562"
         id="stop3460" /><stop
         style="stop-opacity:1;stop-color:#f25c19"
         offset="0.209272"
         id="stop3462" /><stop
         style="stop-opacity:1;stop-color:#fcdaa6"
         offset="1"
         id="stop3464" /></linearGradient></defs><sodipodi:namedview
     pagecolor="#ffffff"
     bordercolor="#666666"
     borderopacity="1"
     objecttolerance="10"
     gridtolerance="10"
     guidetolerance="10"
     inkscape:pageopacity="0"
     inkscape:pageshadow="2"
     inkscape:window-width="1920"
     inkscape:window-height="1013"
     id="namedview3338"
     showgrid="false"
     inkscape:zoom="20.708763"
     inkscape:cx="4.6598631"
     inkscape:cy="10.019913"
     inkscape:window-x="-9"
     inkscape:window-y="-9"
     inkscape:window-maximized="1"
     inkscape:current-layer="g3344"
     fit-margin-top="0"
     fit-margin-left="0"
     fit-margin-right="0"
     fit-margin-bottom="0"
     inkscape:showpageshadow="2"
     inkscape:pagecheckerboard="0"
     inkscape:deskcolor="#d1d1d1" /><g
     id="g3344"
     inkscape:groupmode="layer"
     inkscape:label="logo_visualvm"
     transform="matrix(1.25,0,0,-1.25,-290.21273,734.43146)"><path
       d="m 240.57956,579.21348 c 0.20691,-0.0549 0.33031,-0.2671 0.27544,-0.47401 -0.0549,-0.20708 -0.26722,-0.33018 -0.47413,-0.2754 -0.20691,0.0548 -0.33005,0.26709 -0.27537,0.47396 0.0548,0.20695 0.26715,0.33023 0.47406,0.27545 z"
       style="fill:#3b3b3b;fill-opacity:1;fill-rule:nonzero;stroke:none;stroke-width:0.0886144"
       id="path3362"
       inkscape:connector-curvature="0" /><path
       d="m 241.64328,577.74238 c 0.31162,-0.0827 0.49724,-0.40205 0.41451,-0.71371 -0.0826,-0.31158 -0.40205,-0.49721 -0.71368,-0.41451 -0.31136,0.0827 -0.49706,0.402 -0.41433,0.71363 0.0826,0.31158 0.40196,0.49719 0.7135,0.41459 z"
       style="fill:#3b3b3b;fill-opacity:1;fill-rule:nonzero;stroke:none;stroke-width:0.0886144"
       id="path3376"
       inkscape:connector-curvature="0" /><path
       d="m 242.72431,584.87256 c 0.76143,-0.20193 1.21515,-0.98307 1.01326,-1.74468 -0.20198,-0.76167 -0.98298,-1.21516 -1.74459,-1.0131 -0.76145,0.20176 -1.21508,0.98255 -1.01301,1.74421 0.20163,0.76174 0.98289,1.21537 1.74434,1.01357 z"
       style="fill:#3b3b3b;fill-opacity:1;fill-rule:nonzero;stroke:none;stroke-width:0.0886144"
       id="path3390"
       inkscape:connector-curvature="0" /><path
       d="m 238.86426,584.18951 c 0.51285,-0.13611 0.81851,-0.66205 0.68248,-1.17495 -0.13596,-0.51283 -0.6622,-0.81856 -1.17502,-0.68244 -0.51277,0.13595 -0.81816,0.66206 -0.68213,1.17496 0.13587,0.51279 0.66175,0.81826 1.17467,0.68243 z"
       style="fill:#3b3b3b;fill-opacity:1;fill-rule:nonzero;stroke:none;stroke-width:0.0886144"
       id="path3392"
       inkscape:connector-curvature="0" /><path
       d="m 235.85344,587.17017 c 0.43217,-0.11448 0.68988,-0.55803 0.57526,-0.99042 -0.11466,-0.43243 -0.55808,-0.68996 -0.99043,-0.57521 -0.43247,0.11479 -0.68991,0.55794 -0.5753,0.99042 0.11467,0.43234 0.55808,0.69005 0.99047,0.57521 z"
       style="fill:#3b3b3b;fill-opacity:1;fill-rule:nonzero;stroke:none;stroke-width:0.0886144"
       id="path3394"
       inkscape:connector-curvature="0" /><path
       d="m 237.93385,576.57205 c 0.0536,-0.25646 0.19077,-0.38635 0.19077,-0.38635 l -0.36298,-0.0756 c 0,0 0.0697,0.19436 0.0209,0.42828 -0.0489,0.23386 -0.19086,0.38617 -0.19086,0.38617 l 0.36298,0.0758 c 0,0 -0.0742,-0.17177 -0.0208,-0.42827 z"
       style="fill:#3b3b3b;fill-opacity:1;fill-rule:nonzero;stroke:none;stroke-width:0.0886144"
       id="path3432"
       inkscape:connector-curvature="0" /><path
       d="m 240.22146,581.47825 c -0.81977,-0.71479 -1.19919,-1.25942 -1.19919,-1.25942 l -0.36393,0.41724 c 0,0 0.65682,0.35891 1.4045,1.01093 0.7476,0.65202 1.19924,1.25956 1.19924,1.25956 l 0.36381,-0.41729 c 0,0 -0.58474,-0.29621 -1.40443,-1.01102 z"
       style="fill:#3b3b3b;fill-opacity:1;fill-rule:nonzero;stroke:none;stroke-width:0.0886144"
       id="path3434"
       inkscape:connector-curvature="0" /><path
       d="m 236.36812,583.67856 c 0.31452,-1.37483 0.64375,-2.156 0.64375,-2.156 l -0.49101,-0.11232 c 0,0 -0.0687,0.95659 -0.35571,2.21034 -0.28696,1.25389 -0.64371,2.15595 -0.64371,2.15595 l 0.49092,0.11241 c 0,0 0.0409,-0.83556 0.35576,-2.21038 z"
       style="fill:#3b3b3b;fill-opacity:1;fill-rule:nonzero;stroke:none;stroke-width:0.0886144"
       id="path3436"
       inkscape:connector-curvature="0" /><path
       d="m 238.36515,581.96386 c -0.12673,-0.45056 -0.036,-0.76378 -0.036,-0.76378 l -0.56998,0.16031 c 0,0 0.25096,0.25602 0.36649,0.66686 0.11566,0.41088 0.036,0.76391 0.036,0.76391 l 0.57006,-0.16039 c 0,0 -0.23979,-0.2164 -0.36657,-0.66691 z"
       style="fill:#3b3b3b;fill-opacity:1;fill-rule:nonzero;stroke:none;stroke-width:0.0886144"
       id="path3438"
       inkscape:connector-curvature="0" /><path
       d="m 237.96643,581.59257 c 1.30529,-0.34581 2.08283,-1.68454 1.73685,-2.98965 -0.34607,-1.3052 -1.68467,-2.08253 -2.98987,-1.73664 -1.30521,0.34611 -2.0827,1.68467 -1.73664,2.98978 0.34611,1.30529 1.68476,2.08283 2.98966,1.73651 z"
       style="fill:#3b3b3b;fill-opacity:1;fill-rule:nonzero;stroke:none;stroke-width:0.0886144"
       id="path3440"
       inkscape:connector-curvature="0" /><path
       d="m 238.22344,576.19665 c 0.30613,-0.0811 0.48825,-0.39496 0.40716,-0.70108 -0.0811,-0.30626 -0.39496,-0.48854 -0.70108,-0.40716 -0.30634,0.0811 -0.48855,0.39491 -0.40746,0.70117 0.0812,0.30591 0.39521,0.48829 0.70138,0.40707 z"
       style="fill:#3b3b3b;fill-opacity:1;fill-rule:nonzero;stroke:none;stroke-width:0.0886144"
       id="path3454"
       inkscape:connector-curvature="0" /></g></svg>
